<?xml version="1.0" standalone="no"?>
<!DOCTYPE svg PUBLIC "-//W3C//DTD SVG 20010904//EN"
 "http://www.w3.org/TR/2001/REC-SVG-20010904/DTD/svg10.dtd">
<svg version="1.0" xmlns="http://www.w3.org/2000/svg"
 width="1627.000000pt" height="308.000000pt" viewBox="0 0 1627.000000 308.000000"
 preserveAspectRatio="xMidYMid meet">

<g transform="translate(0.000000,308.000000) scale(0.100000,-0.100000)"
fill="#000000" stroke="none">
<path d="M950 1540 l0 -1320 1315 0 1315 0 0 1320 0 1320 -1315 0 -1315 0 0
-1320z m390 330 c0 -456 -2 -520 -15 -520 -13 0 -15 64 -15 520 0 456 2 520
15 520 13 0 15 -64 15 -520z m760 270 l0 -250 -341 0 c-268 0 -340 3 -337 13
4 9 79 13 321 15 l317 2 0 235 c0 228 1 235 20 235 19 0 20 -7 20 -250z m715
235 c100 -26 165 -63 241 -139 105 -105 154 -220 154 -361 0 -106 -39 -228
-102 -317 -11 -15 -4 -26 50 -81 41 -42 59 -66 52 -73 -6 -6 -88 69 -245 225
-157 158 -231 239 -225 245 7 7 63 -42 171 -149 180 -180 163 -174 215 -73
157 307 -57 680 -406 705 -245 18 -466 -159 -511 -407 -26 -146 22 -301 128
-411 65 -68 112 -99 199 -130 82 -29 226 -29 308 0 64 23 141 64 152 82 4 7
-61 79 -152 170 -105 106 -155 162 -148 169 13 13 480 -453 469 -470 -5 -8
-27 8 -70 50 l-63 62 -59 -36 c-216 -133 -475 -106 -651 70 -159 159 -196 394
-95 604 35 72 151 188 223 223 117 56 250 71 365 42z m-720 -770 c0 -230 -1
-250 -17 -253 -17 -3 -18 13 -18 232 l0 236 -314 0 c-199 0 -317 4 -321 10
-17 28 15 30 338 28 l332 -3 0 -250z m1215 -520 l0 -115 -1047 0 -1048 0 3
115 3 115 1045 0 1044 0 0 -115z m-1700 -297 c0 -12 3 -18 6 -15 11 11 44 -13
44 -32 0 -26 -22 -41 -48 -34 -19 5 -22 12 -22 54 0 27 5 49 10 49 6 0 10 -10
10 -22z m218 11 c-12 -7 -19 -24 -20 -52 l-1 -42 -4 40 c-2 22 -11 46 -20 53
-14 10 -11 12 23 12 31 -1 36 -3 22 -11z m55 -30 c23 2 27 -2 26 -31 -2 -31
-2 -31 -6 -5 -2 15 -10 27 -18 27 -8 0 -16 -12 -18 -27 -2 -16 -4 -3 -5 27 0
33 3 46 6 32 4 -13 10 -23 15 -23z m212 16 c1 -11 4 -25 8 -32 13 -21 -4 -43
-34 -43 -28 0 -29 1 -29 51 0 49 1 50 28 47 19 -2 27 -9 27 -23z m373 13 c5
-7 9 -29 8 -48 -1 -30 -5 -35 -28 -38 -27 -3 -28 -2 -28 47 0 43 3 51 19 51
10 0 23 -6 29 -12z m232 -10 c0 -12 3 -18 7 -15 3 4 12 2 20 -4 15 -14 18 -59
2 -59 -5 0 -9 10 -7 22 2 11 -3 23 -9 25 -8 3 -13 -5 -13 -21 0 -14 -4 -26
-10 -26 -5 0 -10 23 -10 50 0 28 5 50 10 50 6 0 10 -10 10 -22z m-45 -43 c1
-25 -2 -42 -6 -38 -12 13 -15 102 -3 90 4 -4 8 -27 9 -52z m-670 15 c18 -20
17 -20 -8 -20 -15 0 -27 -5 -27 -11 0 -6 9 -9 20 -6 24 6 27 -8 4 -17 -34 -13
-59 35 -32 62 16 16 22 15 43 -8z m241 -3 c-8 -7 -16 -21 -19 -32 -3 -13 -5
-9 -6 12 0 17 5 33 12 36 20 7 29 -4 13 -16z m84 -23 c0 -13 -4 -24 -10 -24
-5 0 -10 11 -10 25 0 14 -4 25 -10 25 -5 0 -10 -11 -10 -25 0 -14 -4 -25 -10
-25 -18 0 -11 58 8 62 24 6 42 -10 42 -38z m55 36 c3 -5 -2 -10 -11 -10 -16 0
-16 -1 1 -14 12 -8 16 -19 12 -30 -7 -19 -28 -17 -35 2 -2 8 3 10 15 6 17 -5
17 -5 -1 10 -10 8 -16 22 -13 31 7 17 23 20 32 5z m175 1 c0 -5 -6 -11 -14
-14 -9 -4 -12 -14 -9 -26 3 -12 1 -21 -6 -21 -15 0 -14 57 2 63 19 8 27 8 27
-2z m80 -31 c0 -25 -30 -41 -53 -29 -39 22 -4 79 35 58 10 -5 18 -18 18 -29z
m188 28 c19 -19 14 -28 -14 -28 -15 0 -23 -4 -18 -11 3 -6 15 -9 25 -6 23 6
25 -8 3 -17 -20 -8 -44 10 -44 33 0 17 18 41 30 41 3 0 11 -5 18 -12z m72 3
c0 -5 -6 -11 -14 -14 -8 -3 -16 -16 -19 -29 -3 -18 -5 -16 -6 9 -1 28 8 40 32
42 4 1 7 -3 7 -8z m41 -9 c-9 -3 -8 -8 4 -22 14 -15 14 -19 1 -29 -15 -13 -36
-7 -36 9 0 5 8 7 18 3 15 -6 15 -4 -3 16 -16 18 -17 24 -5 31 8 5 19 6 24 3 6
-4 5 -8 -3 -11z m-1225 -14 l7 -23 8 23 c5 12 13 22 19 22 6 0 -1 -22 -15 -50
-14 -27 -27 -50 -28 -50 -2 0 -3 15 -3 33 0 17 -4 40 -8 50 -5 10 -4 17 2 17
6 0 14 -10 18 -22z m444 -3 c0 -14 5 -25 10 -25 6 0 10 11 10 25 0 14 5 25 10
25 16 0 12 -46 -5 -60 -12 -10 -18 -10 -30 0 -17 14 -21 60 -5 60 6 0 10 -11
10 -25z"/>
<path d="M1306 1128 c-22 -31 -20 -64 4 -88 25 -25 62 -26 83 -2 28 31 22 52
-15 52 -34 0 -29 -15 7 -22 19 -3 18 -5 -6 -21 -32 -21 -57 -13 -70 21 -7 18
-5 31 7 49 13 21 21 24 52 19 27 -5 33 -4 22 3 -26 18 -68 13 -84 -11z"/>
<path d="M1472 1088 l-2 -68 30 0 c17 0 30 5 30 10 0 6 -11 10 -25 10 -22 0
-24 4 -28 58 l-3 57 -2 -67z"/>
<path d="M1595 1130 c-35 -39 -10 -110 39 -110 37 0 66 28 66 64 0 59 -66 89
-105 46z m81 -15 c31 -48 -15 -101 -62 -70 -28 18 -31 51 -7 77 22 25 50 23
69 -7z"/>
<path d="M1750 1090 c0 -66 9 -77 55 -66 18 5 25 13 25 31 0 14 -4 25 -9 25
-5 0 -8 15 -7 33 1 29 -2 32 -31 35 l-33 3 0 -61z m55 40 c7 -12 -12 -40 -26
-40 -5 0 -9 11 -9 25 0 25 23 35 35 15z m12 -66 c6 -16 -12 -34 -34 -34 -7 0
-13 11 -13 25 0 18 5 25 20 25 11 0 23 -7 27 -16z"/>
<path d="M1917 1138 c-39 -97 -45 -118 -38 -118 6 0 13 9 16 20 9 28 61 28 70
-1 4 -11 9 -18 12 -15 7 7 -37 126 -47 126 -4 0 -10 -6 -13 -12z m23 -27 c0
-5 3 -16 6 -25 4 -12 0 -16 -15 -16 -22 0 -25 8 -15 34 7 17 24 22 24 7z"/>
<path d="M2042 1088 l-2 -68 30 0 c17 0 30 5 30 10 0 6 -11 10 -25 10 -22 0
-24 4 -28 58 l-3 57 -2 -67z"/>
<path d="M2222 1083 l1 -68 6 55 6 55 34 -53 c18 -28 36 -50 40 -47 4 2 9 31
10 65 2 71 -16 83 -21 13 l-3 -48 -30 47 c-16 27 -33 48 -37 48 -5 0 -7 -30
-6 -67z"/>
<path d="M2380 1085 l0 -65 30 0 c17 0 30 5 30 10 0 6 -11 10 -25 10 -18 0
-25 5 -25 20 0 15 7 20 28 21 l27 1 -25 7 c-37 10 -33 44 5 52 29 6 29 7 -7 8
l-38 1 0 -65z"/>
<path d="M2507 1143 c19 -4 23 -12 26 -66 l3 -62 2 62 c2 55 4 62 25 66 12 2
0 4 -28 4 -27 0 -40 -2 -28 -4z"/>
<path d="M2624 1134 c4 -9 11 -36 17 -60 14 -55 26 -63 39 -27 6 15 14 37 19
48 l9 20 7 -20 c21 -60 28 -74 36 -70 10 7 42 116 35 123 -3 2 -8 -1 -10 -9
-2 -8 -10 -32 -17 -54 l-12 -40 -16 47 c-9 26 -19 49 -22 53 -4 3 -15 -18 -25
-47 l-18 -53 -15 53 c-9 28 -20 52 -24 52 -5 0 -6 -7 -3 -16z"/>
<path d="M2856 1135 c-26 -27 -29 -56 -9 -84 54 -71 149 4 97 77 -18 26 -65
30 -88 7z m74 -15 c11 -11 20 -27 20 -35 0 -16 -34 -55 -48 -55 -4 0 -18 7
-30 16 -26 18 -29 56 -6 78 21 21 40 20 64 -4z"/>
<path d="M3021 1083 c1 -37 4 -56 6 -40 5 34 16 34 41 2 26 -33 39 -32 17 1
-12 19 -14 29 -5 39 6 8 10 24 8 37 -2 18 -10 24 -35 26 l-33 3 1 -68z m54 32
c0 -13 -8 -21 -22 -23 -19 -3 -23 1 -23 23 0 22 4 26 23 23 14 -2 22 -10 22
-23z"/>
<path d="M3150 1085 c0 -37 4 -65 10 -65 6 0 10 12 10 26 l0 26 31 -27 c17
-14 34 -24 37 -21 2 3 -10 17 -27 32 l-32 27 32 33 c39 40 28 46 -13 7 l-28
-27 0 27 c0 15 -4 27 -10 27 -6 0 -10 -28 -10 -65z"/>
<path d="M1610 740 c0 -11 7 -20 15 -20 8 0 15 9 15 20 0 11 -7 20 -15 20 -8
0 -15 -9 -15 -20z"/>
<path d="M2060 786 c0 -9 5 -16 10 -16 6 0 10 4 10 9 0 6 -4 13 -10 16 -5 3
-10 -1 -10 -9z"/>
<path d="M2060 735 c0 -8 7 -15 15 -15 8 0 15 7 15 15 0 8 -7 15 -15 15 -8 0
-15 -7 -15 -15z"/>
<path d="M2440 786 c0 -9 5 -16 10 -16 6 0 10 4 10 9 0 6 -4 13 -10 16 -5 3
-10 -1 -10 -9z"/>
<path d="M2440 734 c0 -17 22 -14 28 4 2 7 -3 12 -12 12 -9 0 -16 -7 -16 -16z"/>
<path d="M1958 753 c7 -3 16 -2 19 1 4 3 -2 6 -13 5 -11 0 -14 -3 -6 -6z"/>
<path d="M2570 740 c0 -11 7 -20 15 -20 8 0 15 9 15 20 0 11 -7 20 -15 20 -8
0 -15 -9 -15 -20z"/>
<path d="M5290 1917 c-94 -27 -172 -97 -219 -196 -22 -48 -26 -69 -25 -146 0
-108 27 -179 96 -247 71 -71 126 -92 238 -93 82 0 102 3 147 26 l53 26 32 -20
c18 -11 48 -26 65 -33 31 -14 33 -13 48 15 21 41 20 45 -18 59 -18 6 -42 18
-52 26 -18 13 -19 16 -4 33 9 10 27 38 40 63 21 39 24 59 24 150 0 100 -1 108
-34 168 -40 74 -85 116 -160 150 -65 30 -165 38 -231 19z m207 -95 c83 -43
135 -134 135 -241 1 -73 -23 -142 -61 -175 -24 -22 -22 -22 -104 53 l-37 35
-22 -22 -22 -22 59 -55 59 -54 -37 -16 c-85 -35 -190 -13 -259 56 -73 73 -96
176 -62 288 19 67 88 143 147 165 56 21 150 15 204 -12z"/>
<path d="M6313 1916 c-63 -20 -129 -62 -157 -99 -119 -155 -107 -368 26 -499
68 -66 139 -91 243 -86 96 5 162 35 219 98 49 54 62 88 71 178 l7 72 -161 0
-161 0 0 -30 0 -30 116 0 117 0 -6 -46 c-14 -129 -197 -213 -322 -147 -94 50
-140 136 -139 258 1 90 16 134 66 190 84 96 234 107 352 26 l43 -30 18 31 c18
31 18 31 -6 51 -77 63 -233 94 -326 63z"/>
<path d="M7594 1921 c-99 -26 -186 -100 -232 -199 -22 -48 -27 -71 -27 -142 0
-72 5 -94 28 -145 34 -73 95 -138 162 -173 73 -37 188 -42 270 -11 71 27 149
100 185 174 22 43 25 64 25 155 0 95 -3 110 -28 158 -60 113 -164 182 -286
188 -36 2 -80 0 -97 -5z m193 -99 c156 -80 184 -327 51 -448 -53 -48 -95 -64
-166 -64 -109 0 -191 60 -233 170 -40 106 -16 217 65 295 28 28 67 56 86 62
50 17 148 10 197 -15z"/>
<path d="M13104 1921 c-99 -26 -186 -100 -232 -199 -22 -48 -27 -71 -27 -142
0 -72 5 -94 28 -145 34 -73 95 -138 162 -173 73 -37 188 -42 270 -11 71 27
149 100 185 174 22 43 25 64 25 155 0 95 -3 110 -28 158 -60 113 -164 182
-286 188 -36 2 -80 0 -97 -5z m193 -99 c156 -80 184 -327 51 -448 -53 -48 -95
-64 -166 -64 -109 0 -191 60 -233 170 -40 106 -16 217 65 295 28 28 67 56 86
62 50 17 148 10 197 -15z"/>
<path d="M4390 1580 l0 -340 40 0 40 0 0 150 0 150 170 0 170 0 0 -150 0 -150
40 0 40 0 0 340 0 340 -40 0 -40 0 0 -150 0 -150 -170 0 -170 0 0 150 0 150
-40 0 -40 0 0 -340z"/>
<path d="M6880 1580 l0 -340 175 0 175 0 0 35 0 35 -135 0 -135 0 0 305 0 305
-40 0 -40 0 0 -340z"/>
<path d="M8150 1581 l0 -341 123 0 c142 0 209 16 249 57 77 81 60 226 -32 273
-21 11 -46 20 -55 20 -11 0 -7 8 15 26 42 36 60 74 60 131 0 64 -27 112 -80
142 -36 20 -60 25 -161 29 l-119 5 0 -342z m251 231 c20 -22 29 -43 29 -67 0
-80 -39 -115 -137 -123 l-63 -5 0 118 0 117 71 -4 c65 -3 74 -6 100 -36z m37
-290 c58 -42 63 -128 10 -179 -27 -26 -36 -28 -124 -31 l-94 -4 0 122 0 122
88 -4 c71 -3 94 -8 120 -26z"/>
<path d="M8782 1587 c-73 -182 -132 -336 -132 -340 0 -5 19 -7 42 -5 l43 3 36
95 37 95 143 0 143 0 36 -95 36 -95 46 -3 47 -3 -34 83 c-18 46 -79 199 -135
341 l-101 257 -38 0 -38 0 -131 -333z m278 -69 c0 -5 -49 -8 -110 -8 -60 0
-110 2 -110 4 0 6 101 270 107 280 5 7 113 -257 113 -276z"/>
<path d="M9400 1580 l0 -340 175 0 175 0 0 35 0 35 -135 0 -135 0 0 305 0 305
-40 0 -40 0 0 -340z"/>
<path d="M10110 1580 l0 -340 40 0 40 0 2 264 3 263 168 -263 169 -264 39 0
39 0 0 340 0 340 -40 0 -40 0 -2 -265 -3 -265 -169 265 -169 265 -39 0 -38 0
0 -340z"/>
<path d="M10830 1580 l0 -340 175 0 175 0 0 35 0 35 -135 0 -135 0 0 115 0
115 130 0 130 0 0 40 0 40 -130 0 -130 0 0 115 0 115 135 0 135 0 0 35 0 35
-175 0 -175 0 0 -340z"/>
<path d="M11290 1880 l0 -40 95 0 95 0 0 -300 0 -300 45 0 45 0 0 300 0 300
95 0 95 0 0 40 0 40 -235 0 -235 0 0 -40z"/>
<path d="M11844 1903 c3 -10 38 -126 76 -258 39 -132 82 -277 96 -323 l25 -83
46 3 46 3 85 255 85 255 86 -257 86 -258 47 0 47 0 16 53 c8 28 53 180 99 337
l84 285 -41 3 c-22 2 -43 0 -47 -5 -5 -4 -41 -127 -81 -273 -39 -146 -75 -268
-78 -272 -3 -4 -46 119 -95 273 l-90 279 -31 0 -31 0 -89 -275 c-49 -151 -92
-275 -95 -275 -3 0 -40 123 -81 273 l-76 272 -47 3 c-42 3 -47 1 -42 -15z"/>
<path d="M13700 1581 l0 -341 40 0 40 0 0 140 0 140 30 0 c26 0 41 -16 136
-140 l107 -140 49 0 c26 0 48 2 48 5 0 3 -47 65 -105 139 -58 73 -105 136
-105 140 0 3 7 6 17 6 9 0 36 11 60 25 68 40 103 130 84 216 -13 56 -38 88
-92 119 -39 22 -58 25 -176 28 l-133 4 0 -341z m243 255 c48 -20 69 -50 74
-103 5 -58 -10 -89 -56 -120 -28 -19 -48 -23 -107 -23 l-74 0 0 130 0 130 65
0 c36 0 80 -6 98 -14z"/>
<path d="M14290 1580 l0 -340 40 0 40 0 0 152 0 153 153 -153 152 -152 60 0
60 1 -172 168 c-95 93 -173 172 -173 176 0 4 68 78 150 165 83 87 150 160 150
164 0 3 -21 6 -47 6 l-48 -1 -140 -149 -140 -149 -3 149 -3 150 -39 0 -40 0 0
-340z"/>
</g>
</svg>
